<?xml version="1.0" encoding="UTF-8"?>
<svg width="53px" height="93px" viewBox="0 0 53 93" version="1.1" xmlns="http://www.w3.org/2000/svg" xmlns:xlink="http://www.w3.org/1999/xlink">
    <!-- Generator: Sketch 49.3 (51167) - http://www.bohemiancoding.com/sketch -->
    <title>noun_189177_cc</title>
    <desc>Created with Sketch.</desc>
    <defs></defs>
    <g id="Maquette" stroke="none" stroke-width="1" fill="none" fill-rule="evenodd">
        <g id="Home-générale" transform="translate(-973.000000, -754.000000)" fill="#FE5F55" fill-rule="nonzero">
            <g id="Home-/-partie-1">
                <g id="Pictos" transform="translate(364.000000, 754.000000)">
                    <g id="noun_189177_cc" transform="translate(609.000000, 0.000000)">
                        <path d="M21.8,92.7 L4.2,92.7 C2.4,92.7 0.9,91.2 0.9,89.4 L0.9,50.7 C0.9,48.9 2.4,47.4 4.2,47.4 L21.8,47.4 C23.6,47.4 25.1,48.9 25.1,50.7 L25.1,89.4 C25.1,91.2 23.6,92.7 21.8,92.7 Z M4.2,49.3 C3.4,49.3 2.8,49.9 2.8,50.7 L2.8,89.4 C2.8,90.2 3.4,90.8 4.2,90.8 L21.8,90.8 C22.6,90.8 23.2,90.2 23.2,89.4 L23.2,50.7 C23.2,49.9 22.6,49.3 21.8,49.3 L4.2,49.3 Z" id="Shape"></path>
                        <path d="M23.2,49.3 C23,49.3 22.8,49.2 22.7,49.1 C22.5,48.9 22.2,48.9 21.9,48.9 L4.2,48.9 C3.9,48.9 3.6,49 3.4,49.1 C3.1,49.3 2.7,49.3 2.4,49.2 C2.1,49 1.9,48.7 1.9,48.4 L1.9,47.1 C1.9,45.3 3.4,43.8 5.2,43.8 L20.8,43.8 C22.6,43.8 24.1,45.3 24.1,47.1 L24.1,48.4 C24.1,48.7 23.9,49.1 23.6,49.2 C23.5,49.3 23.3,49.3 23.2,49.3 Z M5.3,45.7 C4.5,45.7 3.9,46.3 3.9,47.1 C4,47.1 4.2,47.1 4.3,47.1 L21.9,47.1 C22,47.1 22.2,47.1 22.3,47.1 C22.3,46.3 21.7,45.7 20.9,45.7 L5.3,45.7 Z" id="Shape"></path>
                        <path d="M4,46.1 C3.8,46.1 3.7,46.1 3.6,46 C3.3,45.8 3.1,45.5 3.1,45.2 L3.1,26 C3.1,24.2 4.6,22.7 6.4,22.7 L19.8,22.7 C21.6,22.7 23.1,24.2 23.1,26 L23.1,45.2 C23.1,45.5 22.9,45.9 22.6,46 C22.3,46.2 21.9,46.2 21.7,46 C21.5,45.9 21.2,45.8 20.9,45.8 L5.3,45.8 C5,45.8 4.8,45.9 4.6,46 C4.4,46 4.2,46.1 4,46.1 Z M5.3,43.9 L20.9,43.9 C21,43.9 21.1,43.9 21.2,43.9 L21.2,26 C21.2,25.2 20.6,24.6 19.8,24.6 L6.3,24.6 C5.5,24.6 4.9,25.2 4.9,26 L4.9,43.9 C5,43.9 5.2,43.9 5.3,43.9 Z" id="Shape"></path>
                        <g id="Group" transform="translate(5.000000, 0.000000)">
                            <path d="M3.2,11.9 C2.4,11.9 1.7,11.7 1.2,11.2 C0.8,10.9 0.8,10.3 1.1,9.9 C1.4,9.5 2,9.5 2.4,9.8 C2.9,10.3 5.2,10.1 7.9,7.7 C10.4,5.4 10.9,2.9 10.5,2.2 C10.2,1.8 10.4,1.2 10.8,0.9 C11.2,0.6 11.8,0.8 12.1,1.2 C13.1,2.9 12.3,6.3 9.2,9.1 C7.1,10.9 4.9,11.9 3.2,11.9 Z" id="Shape"></path>
                            <path d="M1,24.6 C0.8,24.6 0.6,24.5 0.4,24.4 C0.2,24.2 0.1,24 0.1,23.7 L0.1,10.9 C0.1,10.8 0.1,10.7 0.2,10.6 C0.3,10.3 3,2.7 11.2,0.1 C11.6,-5.13478149e-16 12.1,0.2 12.3,0.5 C12.4,0.7 15.4,6 15.7,11.6 C15.9,14.5 16,19.6 16,23.5 C16,23.5 16,23.6 16,23.6 C16,24.1 15.6,24.5 15.1,24.5 C15.1,24.5 15.1,24.5 15.1,24.5 C15.1,24.5 15,24.5 15,24.5 C14.9,24.5 14.9,24.5 14.8,24.5 L1.4,24.5 C1.3,24.5 1.3,24.5 1.2,24.5 C1.1,24.5 1.1,24.6 1,24.6 Z M1.9,22.7 L14.1,22.7 C14,19 13.9,14.4 13.8,11.8 C13.5,7.8 11.8,3.7 11,2.2 C4.8,4.5 2.3,10.2 2,11.1 L2,22.7 L1.9,22.7 Z" id="Shape"></path>
                        </g>
                        <path d="M51.3,92.7 L29,92.7 C28.5,92.7 28.1,92.3 28.1,91.8 L28.1,53.2 C28.1,51.4 29.6,49.9 31.4,49.9 L49,49.9 C50.8,49.9 52.3,51.4 52.3,53.2 L52.3,91.7 C52.2,92.2 51.8,92.7 51.3,92.7 Z M29.9,90.8 L50.3,90.8 L50.3,53.2 C50.3,52.4 49.7,51.8 48.9,51.8 L31.4,51.8 C30.6,51.8 30,52.4 30,53.2 L30,90.8 L29.9,90.8 Z" id="Shape"></path>
                        <path d="M24,57.2 L2.1,57.2 C1.6,57.2 1.2,56.8 1.2,56.3 C1.2,55.8 1.6,55.4 2.1,55.4 L24,55.4 C24.5,55.4 24.9,55.8 24.9,56.3 C24.9,56.7 24.5,57.2 24,57.2 Z" id="Shape"></path>
                    </g>
                </g>
            </g>
        </g>
    </g>
</svg>