<?xml version="1.0" encoding="UTF-8"?>
<svg width="103px" height="74px" viewBox="0 0 103 74" version="1.1" xmlns="http://www.w3.org/2000/svg" xmlns:xlink="http://www.w3.org/1999/xlink">
    <!-- Generator: Sketch 49.3 (51167) - http://www.bohemiancoding.com/sketch -->
    <title>noun_167468_cc</title>
    <desc>Created with Sketch.</desc>
    <defs></defs>
    <g id="Maquette" stroke="none" stroke-width="1" fill="none" fill-rule="evenodd">
        <g id="Home-générale" transform="translate(-364.000000, -764.000000)" fill="#FE5F55" fill-rule="nonzero">
            <g id="Home-/-partie-1">
                <g id="Pictos" transform="translate(364.000000, 754.000000)">
                    <g id="noun_167468_cc" transform="translate(0.000000, 10.000000)">
                        <path d="M51.4978245,0 C45.8211273,0 41.0363997,4.0754717 41.0363997,9.28011611 C41.0363997,9.88534107 41.6049397,10.4092888 42.2126392,10.4092888 C42.8203388,10.4092888 43.3482687,9.88534107 43.3482687,9.28011611 C43.3482687,5.48766328 46.9161468,2.25979681 51.4992748,2.25979681 C56.0824028,2.25979681 59.6502809,5.48766328 59.6502809,9.28011611 C59.6502809,14.2830189 57.6632919,16.1393324 55.3108129,18.6008708 C53.0410043,20.9811321 50.4854753,23.8461538 50.3636453,29.4949202 C45.2134278,29.6966618 40.7129701,32.6023222 38.0356112,36.7576197 C37.3873016,37.8461538 36.9405917,39.0566038 36.3328921,40.065312 C35.7251926,40.7910015 34.5083431,41.7997097 32.602574,42.8098694 C29.6017855,44.4644412 25.2231578,46.1175617 20.7618598,47.8940493 C16.2599518,49.628447 11.5970542,51.5253991 7.58391653,54.5108853 C3.52871848,57.4978229 0,62.2583454 0,68.3105951 C0,71.3367199 2.51346861,74 5.5563175,74 L54.3796837,74 L55.3122633,74 L97.4451329,74 C100.486531,74 103,71.3367199 103,68.3105951 C103,62.2583454 99.4712815,57.4978229 95.4160835,54.5108853 C91.4014954,51.5253991 86.7385978,49.6298984 82.2366898,47.8940493 C77.7768422,46.1175617 73.3967642,44.4644412 70.3959756,42.8098694 C68.4916569,41.8011611 67.2748074,40.7910015 66.6671079,40.065312 C66.057958,39.0566038 65.611248,37.8461538 64.9629385,36.7576197 C63.0165594,33.7314949 60.0984412,31.4310595 56.6509427,30.2612482 C55.3122633,29.7764877 54.0562541,29.6153846 52.6769647,29.4949202 C52.7987947,24.532656 54.7045637,22.5558781 56.9758227,20.1741655 C59.2876917,17.7532656 61.9621499,14.9288824 61.9621499,9.28011611 C61.9592492,4.07402032 57.1745216,0 51.4978245,0 Z M51.2541645,31.6719884 C54.0112931,31.712627 56.2419421,32.4383164 58.4725911,33.5283019 C60.4204205,34.4963716 61.9592492,36.191582 63.096329,38.1277213 C63.664869,39.095791 63.9476886,40.1451379 64.5568385,41.1132075 C65.326978,42.4049347 66.9078671,43.574746 69.2603461,44.8664731 C72.5454046,46.6415094 76.9240323,48.2148041 81.3838799,49.9898403 C85.8437276,51.724238 90.3862455,53.5820029 94.0759536,56.3236575 C97.6844418,59.0275762 100.727291,63.1422351 100.727291,68.3076923 C100.727291,70.04209 99.0231212,71.7373004 97.4422321,71.7373004 L55.3093625,71.7373004 L54.376783,71.7373004 L5.55486714,71.7373004 C3.9725277,71.7373004 2.26980864,70.04209 2.26980864,68.3076923 C2.26980864,63.1422351 5.31120718,59.0275762 8.91969528,56.3236575 C12.6094034,53.5805515 17.1519214,51.724238 21.611769,49.9898403 C26.073067,48.2133527 30.4516947,46.6400581 33.7367532,44.8664731 C36.0892322,43.574746 37.6701212,42.4049347 38.4402608,41.1132075 C39.0479603,40.1451379 39.3322303,39.095791 39.9007702,38.1277213 C41.0363997,36.191582 42.6172888,34.5355588 44.5230579,33.5283019 C46.6724869,32.4383164 48.9843559,31.7939042 51.2541645,31.6719884 Z M51.4978245,38.5718433 C48.1736063,38.5718433 45.9835673,40.1059507 44.9697678,42.4455733 C43.3076587,46.317852 40.3068702,48.9419448 36.6969317,50.9187228 C32.7635637,53.0159652 28.181886,54.6313498 23.842418,56.3657475 C19.50295,58.0595065 15.4477519,59.8751814 12.6906234,61.8940493 C12.0829238,62.3381713 11.8798738,62.701016 11.6768239,62.9013062 C10.9472943,63.5065312 11.4737739,64.8780842 12.4063534,64.8780842 L54.376783,64.8780842 L55.3093625,64.8780842 L90.5878452,64.8780842 C91.521875,64.8780842 92.0483546,63.5065312 91.3188251,62.9013062 C91.1143247,62.6995646 90.9127251,62.3367199 90.3050256,61.8940493 C87.547897,59.8751814 83.4926989,58.0595065 79.1546813,56.3657475 C74.8152133,54.6313498 70.2335356,53.0159652 66.3001676,50.9187228 C62.6916795,48.9419448 59.8924905,46.1973875 58.0273315,42.4455733 C56.6059817,39.6603774 54.417393,38.5718433 51.4978245,38.5718433 Z M51.6602644,40.7111756 C53.8909134,41.0740203 55.2702029,41.7997097 55.9185125,43.3338171 C57.9040511,47.8519594 61.3921596,50.838897 65.2036977,52.8969521 C69.3401157,55.1567489 74.0030134,56.8098694 78.300421,58.4644412 C81.6666995,59.7953556 84.6268781,61.2089985 86.9779067,62.6197388 L55.3093625,62.6197388 L54.376783,62.6197388 L16.0162919,62.6197388 C18.3687709,61.2075472 21.3289494,59.7953556 24.6937775,58.4644412 C28.9926356,56.8098694 33.6555332,55.1567489 37.7919512,52.8969521 C41.6034893,50.838897 45.3758677,47.9738752 47.0785868,43.3338171 C48.0517763,41.436865 49.8357154,40.7111756 51.6602644,40.7111756 Z" id="Shape"></path>
                    </g>
                </g>
            </g>
        </g>
    </g>
</svg>