<?xml version="1.0" encoding="UTF-8"?>
<svg width="66px" height="92px" viewBox="0 0 66 92" version="1.1" xmlns="http://www.w3.org/2000/svg" xmlns:xlink="http://www.w3.org/1999/xlink">
    <!-- Generator: Sketch 49.3 (51167) - http://www.bohemiancoding.com/sketch -->
    <title>noun_1241354_cc</title>
    <desc>Created with Sketch.</desc>
    <defs></defs>
    <g id="Maquette" stroke="none" stroke-width="1" fill="none" fill-rule="evenodd">
        <g id="Home-générale" transform="translate(-687.000000, -754.000000)" fill="#FE5F55" fill-rule="nonzero">
            <g id="Home-/-partie-1">
                <g id="Pictos" transform="translate(364.000000, 754.000000)">
                    <g id="noun_1241354_cc" transform="translate(323.000000, 0.000000)">
                        <path d="M54.22,26.4 L11.78,26.4 L11.78,80.95 L54.22,80.95 L54.22,26.4 Z M52.22,78.95 L13.78,78.95 L13.78,28.4 L52.22,28.4 L52.22,78.95 Z" id="Shape"></path>
                        <path d="M32.46,0.49 L9,15.67 L0,15.67 L0,91.67 L66,91.67 L66,15.67 L57,15.67 L33.54,0.49 C33.2109506,0.278886689 32.7890494,0.278886689 32.46,0.49 Z M64,89.67 L2,89.67 L2,17.67 L64,17.67 L64,89.67 Z M12.67,15.67 L33,2.52 L53.36,15.67 L12.67,15.67 Z" id="Shape"></path>
                    </g>
                </g>
            </g>
        </g>
    </g>
</svg>